<svg enable-background="new 0 0 24 24" height="512" viewBox="0 0 24 24" width="512" xmlns="http://www.w3.org/2000/svg"><g id="color"><g><path d="m23.126 8.86c-.427-.446-1.084-.56-1.637-.284l-1.751.871c-.301.15-.423.514-.273.814.118.238.372.358.621.326l.345 2.646-.399.717c-.163.293-.058.663.236.826.093.052.195.077.295.077.213 0 .42-.113.531-.312l2.242-4.032c.306-.549.223-1.196-.21-1.649z" fill="#eee"/></g><g><path d="m4.262 9.446-1.75-.87c-.554-.278-1.211-.163-1.638.283-.433.453-.516 1.1-.21 1.648l2.242 4.033c.111.2.318.312.531.312.1 0 .201-.025.295-.077.293-.163.399-.533.236-.826l-.399-.717.345-2.646c.25.033.503-.087.621-.326.15-.299.027-.664-.273-.814z" fill="#eee"/></g><g><path d="m19.276 7.582c-.479-3.637-3.607-6.38-7.276-6.38s-6.797 2.743-7.276 6.38l-1.707 12.963c-.078.58.173 1.148.653 1.482.482.335 1.103.372 1.619.096l1.825-.971c.308-.164.681-.169.995-.012l2.802 1.401c.341.171.715.256 1.089.256s.748-.085 1.089-.256l2.802-1.401c.315-.157.687-.152.995.012l1.825.971c.519.276 1.138.239 1.619-.096.48-.334.731-.902.653-1.481z" fill="#eee"/></g><g><path d="m16.572 17.004c-.442 0-.884-.168-1.221-.505l-.686-.685c-.13-.13-.186-.317-.149-.497s.162-.33.333-.398c1.071-.425 1.267-1.326 1.269-1.335.038-.2.183-.362.377-.422.194-.062.405-.007.549.138l.751.758c.671.672.671 1.767-.002 2.441-.336.337-.779.505-1.221.505z" fill="#e53935"/></g></g><g id="regular"><g><path d="m10.25 10.25c-.414 0-.75-.336-.75-.75 0-.552-.448-1-1-1s-1 .448-1 1c0 .414-.336.75-.75.75s-.75-.336-.75-.75c0-1.379 1.121-2.5 2.5-2.5s2.5 1.121 2.5 2.5c0 .414-.336.75-.75.75z"/></g><g><path d="m17.25 10.25c-.414 0-.75-.336-.75-.75 0-.552-.448-1-1-1s-1 .448-1 1c0 .414-.336.75-.75.75s-.75-.336-.75-.75c0-1.379 1.121-2.5 2.5-2.5s2.5 1.121 2.5 2.5c0 .414-.336.75-.75.75z"/></g><g><path d="m12 23.997c-.416 0-.831-.095-1.21-.284l-3.113-1.557c-.35-.176-.763-.169-1.105.014l-2.029 1.078c-.575.308-1.264.266-1.797-.106-.534-.372-.813-1.003-.727-1.648l1.897-14.402c.532-4.042 4.008-7.09 8.084-7.09s7.552 3.048 8.084 7.09l1.897 14.403c.087.644-.192 1.274-.727 1.646-.533.372-1.223.412-1.798.106l-2.026-1.077c-.344-.183-.757-.189-1.106-.014l-3.113 1.557c-.38.189-.795.284-1.211.284zm-4.863-3.468c.414 0 .829.095 1.21.285l3.113 1.557c.338.17.742.17 1.08 0l3.113-1.557c.781-.392 1.71-.379 2.48.031l2.027 1.078h.001c.102.053.185.021.237-.014.042-.03.111-.098.096-.218l-1.896-14.404c-.435-3.298-3.272-5.785-6.598-5.785s-6.163 2.487-6.598 5.785l-1.897 14.403c-.016.122.054.189.096.22.053.034.136.066.237.014l2.029-1.078c.395-.211.832-.317 1.27-.317z"/></g><g><path d="m20.352 15.606c-.123 0-.248-.03-.363-.095-.362-.201-.492-.658-.291-1.02l2.769-4.979c.055-.099.044-.188-.033-.269-.054-.057-.145-.107-.268-.047l-2.163 1.077c-.371.183-.82.033-1.006-.338-.185-.371-.033-.821.338-1.006l2.162-1.076c.679-.338 1.494-.199 2.021.354.534.56.636 1.357.259 2.034l-2.769 4.978c-.137.249-.393.387-.656.387z"/></g><g><path d="m3.648 15.606c-.264 0-.52-.139-.656-.386l-2.769-4.979c-.377-.676-.275-1.474.259-2.033.528-.553 1.34-.693 2.022-.353l2.161 1.075c.371.185.522.635.338 1.006s-.635.521-1.006.338l-2.161-1.075c-.127-.064-.216-.011-.269.046-.077.08-.088.17-.033.268l2.769 4.979c.201.361.071.818-.291 1.02-.116.064-.241.094-.364.094z"/></g><g><path d="m12 16.97c-2.637 0-4.934-1.694-5.716-4.217-.123-.396.098-.816.493-.938.4-.126.816.099.938.493.589 1.891 2.309 3.162 4.285 3.162s3.696-1.271 4.284-3.162c.122-.395.541-.618.938-.493.396.122.616.543.493.938-.781 2.522-3.078 4.217-5.715 4.217z"/></g><g><path d="m16.635 17.724c-.606 0-1.213-.231-1.675-.693l-.94-.94c-.293-.293-.293-.768 0-1.061s.768-.293 1.061 0l.94.94c.34.338.89.336 1.229 0 .163-.163.253-.381.253-.614 0-.234-.09-.452-.253-.615l-1.033-1.043c-.291-.294-.289-.769.006-1.061.294-.292.768-.288 1.061.006l1.03 1.04c.921.921.921 2.424-.003 3.348-.462.461-1.069.693-1.676.693z"/></g></g></svg>